<?xml version="1.0" encoding="UTF-8"?>
<!DOCTYPE svg PUBLIC "-//W3C//DTD SVG 1.1//EN" "http://www.w3.org/Graphics/SVG/1.1/DTD/svg11.dtd">
<svg xmlns="http://www.w3.org/2000/svg" version="1.1" width="2000px" height="2000px" style="shape-rendering:geometricPrecision; text-rendering:geometricPrecision; image-rendering:optimizeQuality; fill-rule:evenodd; clip-rule:evenodd" xmlns:xlink="http://www.w3.org/1999/xlink">
<g><path style="opacity:1" fill="#e9ac00" d="M -0.5,-0.5 C 666.167,-0.5 1332.83,-0.5 1999.5,-0.5C 1999.5,666.167 1999.5,1332.83 1999.5,1999.5C 1332.83,1999.5 666.167,1999.5 -0.5,1999.5C -0.5,1332.83 -0.5,666.167 -0.5,-0.5 Z M 99.5,99.5 C 382.833,99.5 666.167,99.5 949.5,99.5C 949.5,382.833 949.5,666.167 949.5,949.5C 666.167,949.5 382.833,949.5 99.5,949.5C 99.5,666.167 99.5,382.833 99.5,99.5 Z M 1049.5,99.5 C 1332.83,99.5 1616.17,99.5 1899.5,99.5C 1899.5,382.833 1899.5,666.167 1899.5,949.5C 1616.17,949.5 1332.83,949.5 1049.5,949.5C 1049.5,666.167 1049.5,382.833 1049.5,99.5 Z M 99.5,1049.5 C 382.833,1049.5 666.167,1049.5 949.5,1049.5C 949.5,1332.83 949.5,1616.17 949.5,1899.5C 666.167,1899.5 382.833,1899.5 99.5,1899.5C 99.5,1616.17 99.5,1332.83 99.5,1049.5 Z M 1049.5,1049.5 C 1332.83,1049.5 1616.17,1049.5 1899.5,1049.5C 1899.5,1332.83 1899.5,1616.17 1899.5,1899.5C 1616.17,1899.5 1332.83,1899.5 1049.5,1899.5C 1049.5,1616.17 1049.5,1332.83 1049.5,1049.5 Z"/></g>
</svg>
